<svg width="14" height="14" viewBox="0 0 14 14" fill="none" xmlns="http://www.w3.org/2000/svg">
<path d="M13.2887 11.962C13.4649 12.1381 13.5638 12.377 13.5638 12.626C13.5638 12.8751 13.4649 13.114 13.2887 13.2901C13.1126 13.4662 12.8737 13.5652 12.6247 13.5652C12.3756 13.5652 12.1367 13.4662 11.9606 13.2901L7.00045 8.32838L2.03874 13.2885C1.86261 13.4647 1.62374 13.5636 1.37467 13.5636C1.1256 13.5636 0.886731 13.4647 0.710611 13.2885C0.53449 13.1124 0.435547 12.8735 0.435547 12.6245C0.435547 12.3754 0.53449 12.1365 0.710611 11.9604L5.67233 7.00026L0.712173 2.03854C0.536053 1.86242 0.437109 1.62355 0.437109 1.37448C0.437109 1.12541 0.536053 0.886536 0.712173 0.710415C0.888293 0.534295 1.12716 0.435351 1.37624 0.435351C1.62531 0.435351 1.86418 0.534295 2.0403 0.710415L7.00045 5.67213L11.9622 0.709634C12.1383 0.533514 12.3772 0.43457 12.6262 0.43457C12.8753 0.43457 13.1142 0.533513 13.2903 0.709634C13.4664 0.885754 13.5654 1.12462 13.5654 1.3737C13.5654 1.62277 13.4664 1.86164 13.2903 2.03776L8.32858 7.00026L13.2887 11.962Z" fill="black"/>
</svg>
