<svg width="17" height="17" viewBox="0 0 17 17" fill="none" xmlns="http://www.w3.org/2000/svg">
<path d="M8.12501 16.25C3.64499 16.25 0 12.6053 0 8.12515C0 3.64505 3.64499 -5.85978e-08 8.12501 -5.85978e-08C12.605 -5.85978e-08 16.25 3.64505 16.25 8.12515C16.25 12.6053 12.605 16.25 8.12501 16.25Z" fill="#808080"/>
<path fill-rule="evenodd" clip-rule="evenodd" d="M6.85086 8.16356V12.8726C6.85086 12.9405 6.90564 12.9952 6.97351 12.9952H8.72218C8.78976 12.9952 8.84482 12.9405 8.84482 12.8726V8.08675H10.1127C10.1764 8.08675 10.2294 8.03793 10.2348 7.97452L10.3568 6.53246C10.3631 6.46101 10.3062 6.39938 10.2345 6.39938H8.84482V5.37648C8.84482 5.13654 9.03923 4.94213 9.27917 4.94213H10.2559C10.3238 4.94213 10.3785 4.88736 10.3785 4.81978V3.37772C10.3785 3.30984 10.3238 3.25506 10.2559 3.25506H8.60488C7.63617 3.25506 6.85086 4.04039 6.85086 5.00911V6.39938H5.97654C5.90896 6.39938 5.85388 6.45446 5.85388 6.52204V7.9641C5.85388 8.03197 5.90896 8.08675 5.97654 8.08675H6.85086V8.16356Z" fill="white"/>
</svg>
