<svg class="illustration" width="259" height="258" viewBox="0 0 259 258" fill="none" xmlns="http://www.w3.org/2000/svg">
<g id="faq-moto " clip-path="url(#clip0_1_3)">
<g id="faq-moto 1">
<g id="Clip path group">
<g id="Mask group">
<mask id="mask0_1_3" style="mask-type:luminance" maskUnits="userSpaceOnUse" x="0" y="0" width="259" height="258">
<g id="Group">
<g id="clip0_1_3">
<path id="Vector" d="M258.5 0H0.5V258H258.5V0Z" fill="white"/>
</g>
</g>
</mask>
<g mask="url(#mask0_1_3)">
<g id="Group_2">
<g id="Group_3">
<g id="Mask group_2">
<g id="Mask group_3">
<mask id="mask1_1_3" style="mask-type:luminance" maskUnits="userSpaceOnUse" x="0" y="0" width="259" height="258">
<g id="Group_4">
<g id="Group_2_2">
<path id="Vector_2" d="M258.5 0H0.5V258H258.5V0Z" fill="white"/>
</g>
</g>
</mask>
<g mask="url(#mask1_1_3)">
<g id="Group_5">
<g id="Group_3_2">
<path id="scooterBg" d="M197.686 88.4572C197.686 61.9949 176.234 40.5429 149.771 40.5429C123.309 40.5429 101.857 61.9949 101.857 88.4572C101.857 114.92 123.309 136.372 149.771 136.372C176.234 136.372 197.686 114.92 197.686 88.4572Z" fill="white"/>
<path id="strokes" d="M96.0968 206.845C96.0968 206.845 103.877 208.532 114.631 209.607C128.074 210.952 153.614 207.591 173.106 183.395L174.608 181.414C214.294 129.087 166.553 55.8439 102.66 71.0318C75.5641 77.2862 47.0001 101.244 47 136.258C46.9999 149.363 48.9725 169.83 61.7428 175.879C74.5132 181.929 67.2714 136.258 93.9928 143.629L99.9208 127.873C101.635 123.318 105.486 119.902 110.214 118.744L121.518 115.977C125.995 114.881 130.672 116.76 133.147 120.649L138.964 129.791C140.814 132.698 143.937 134.552 147.376 134.785C155.945 135.364 156.526 147.742 148.049 149.122L130.85 151.922L126.427 166.665C125.759 168.893 123.806 170.493 121.49 170.71C111.206 171.674 111.101 186.65 121.371 187.757L130.85 188.779" stroke="url(#paint0_linear_1_3)" stroke-width="9.05579" stroke-linecap="round" stroke-linejoin="round"/>
<g id="pathSymbols">
<path id="Vector_3" d="M98.6348 194.981L80.6826 214.552" stroke="black" stroke-width="8.75393" stroke-linecap="square" stroke-linejoin="round"/>
<path id="Vector_4" d="M85.9043 192.314L93.4096 217.218" stroke="black" stroke-width="8.75393" stroke-linecap="square" stroke-linejoin="round"/>
<path id="Vector_5" d="M76.9282 202.1L102.386 207.432" stroke="black" stroke-width="8.75393" stroke-linecap="square" stroke-linejoin="round"/>
</g>
</g>
</g>
</g>
</g>
</g>
</g>
</g>
</g>
</g>
</g>
</g>
<g id="4g21_58mr_141015 1">
<g id="scooter 1">
<path id="road-path" d="M179.5 101C206 140.5 177.331 216.809 109 208.5" stroke="black" stroke-opacity="0.04"/>
</g>
</g>
<g id="scooter">
<g id="front-wheel">
<path id="path100" d="M183.444 87.6805C181.061 85.7212 177.487 86.1165 175.476 88.5616C173.466 91.0066 173.768 94.5901 176.151 96.5493C178.534 98.5086 182.108 98.1131 184.119 95.668C186.129 93.223 185.826 89.6397 183.444 87.6805ZM174.495 98.5629C171.095 95.7668 170.707 90.5998 173.631 87.044C176.554 83.4883 181.699 82.8702 185.1 85.6664C188.5 88.4621 188.888 93.6295 185.964 97.1852C183.04 100.741 177.895 101.359 174.495 98.5629Z" fill="#041F37" fill-opacity="0.9"/>
<path id="path102" d="M176.322 88.9046C176.322 88.9046 176.492 89.9993 177.446 90.7314C178.4 91.4631 177.447 92.2973 177.447 92.2973C177.447 92.2973 175.457 91.6428 175.044 90.9321C174.632 90.2213 176.322 88.9046 176.322 88.9046Z" fill="#041F37"/>
<path id="path104" d="M182.936 88.3122C181.03 86.7448 178.088 87.162 176.378 89.2423C174.667 91.3225 174.826 94.2895 176.733 95.8569C178.638 97.424 181.581 97.0072 183.291 94.9269C185.002 92.8466 184.842 89.8793 182.936 88.3122ZM176.011 96.7343C173.662 94.8027 173.466 91.145 175.574 88.5812C177.682 86.0176 181.308 85.5037 183.657 87.4353C186.006 89.367 186.203 93.024 184.095 95.5876C181.986 98.1514 178.36 98.666 176.011 96.7343Z" fill="black" fill-opacity="0.33"/>
<path id="path106" d="M182.898 93.622C184.127 92.1271 184.013 90.0015 182.643 88.8752C181.274 87.7488 179.166 88.0477 177.937 89.5426C176.707 91.038 176.822 93.163 178.192 94.2893C179.561 95.4157 181.668 95.1173 182.898 93.622Z" fill="black" fill-opacity="0.47"/>
<path id="path108" d="M180.378 93.3165C180.614 93.2164 180.834 93.0575 181.012 92.8409C181.066 92.775 181.112 92.7058 181.155 92.6351C181.59 93.0165 182.569 93.7396 184.008 94.0121L184.817 92.3078C184.817 92.3078 182.453 91.1975 181.354 91.4826C181.318 91.3219 181.255 91.1696 181.166 91.0315C181.606 90.6671 182.632 89.7057 183.286 88.1833L181.821 87.2436C181.821 87.2436 180.375 89.2533 180.195 90.4382C180.073 90.4246 179.95 90.4253 179.827 90.4428C179.599 89.3111 177.989 87.6257 177.989 87.6257L176.6 88.912C177.272 90.1209 178.21 90.8141 178.731 91.1294C178.515 91.4363 178.415 91.7914 178.43 92.1314L178.402 92.118C177.354 91.6804 174.503 92.6759 174.503 92.6759L174.911 94.5356C177.103 94.3082 178.6 93.0944 178.6 93.0944C178.6 93.0944 178.674 93.0469 178.752 92.9688C178.802 93.029 178.857 93.0859 178.92 93.1374C179.059 93.2521 179.217 93.332 179.382 93.3813L179.369 93.4209C179.369 93.4209 178.664 95.2031 179.122 97.3356L181.036 97.1464C181.036 97.1464 181.112 94.1795 180.378 93.3165Z" fill="#041F37"/>
<path id="path110" d="M179.273 92.7379C178.864 92.4019 178.83 91.768 179.197 91.3219C179.564 90.876 180.192 90.787 180.601 91.123C181.009 91.459 181.043 92.0924 180.677 92.5383C180.31 92.9844 179.681 93.0739 179.273 92.7379Z" fill="#666666"/>
</g>
<g id="back-wheel">
<path id="path112" d="M139.269 58.7898C137.259 61.2348 137.561 64.8182 139.944 66.7775C142.327 68.7367 145.901 68.3412 147.912 65.8961C149.922 63.451 149.619 59.8679 147.237 57.9087C144.854 55.9493 141.28 56.3447 139.269 58.7898ZM137.424 57.2724C140.348 53.7166 145.492 53.0985 148.893 55.8946C152.293 58.6905 152.681 63.8578 149.757 67.4135C146.833 70.9692 141.689 71.5871 138.288 68.7911C134.888 65.9951 134.5 60.8281 137.424 57.2724Z" fill="#041F37" fill-opacity="0.9"/>
<path id="path116" d="M140.156 59.4586C138.446 61.5388 138.605 64.5059 140.511 66.073C142.417 67.6405 145.359 67.2234 147.07 65.1432C148.78 63.0629 148.621 60.0958 146.715 58.5284C144.809 56.9612 141.867 57.3783 140.156 59.4586ZM139.353 58.7976C141.46 56.234 145.087 55.7199 147.436 57.6515C149.785 59.5833 149.981 63.2405 147.873 65.8041C145.765 68.3679 142.139 68.8823 139.789 66.9505C137.44 65.0189 137.244 61.3614 139.353 58.7976Z" fill="black" fill-opacity="0.33"/>
<path id="path118" d="M141.512 59.5919C142.742 58.097 144.849 57.798 146.219 58.9246C147.589 60.0509 147.703 62.1763 146.474 63.6713C145.244 65.1666 143.137 65.465 141.767 64.3387C140.397 63.2122 140.283 61.0873 141.512 59.5919Z" fill="#808080"/>
<path id="path120" d="M142.299 62.006C142.352 61.7548 142.465 61.5083 142.643 61.2917C142.698 61.2259 142.756 61.167 142.818 61.1116C142.359 60.7586 141.46 59.9374 140.915 58.5781L142.431 57.4556C142.431 57.4556 143.977 59.5603 143.91 60.6937C144.075 60.6974 144.236 60.7297 144.389 60.7909C144.661 60.2883 145.407 59.0964 146.774 58.1609L147.979 59.416C147.979 59.416 146.286 61.2228 145.158 61.6288C145.195 61.7455 145.219 61.8666 145.225 61.9905C146.379 61.9954 148.344 63.2494 148.344 63.2494L147.35 64.8611C146.035 64.4358 145.173 63.6491 144.763 63.1988C144.504 63.4705 144.175 63.6369 143.838 63.6876L143.857 63.7129C144.489 64.6564 144.063 67.6464 144.063 67.6464L142.159 67.6047C141.959 65.4105 142.861 63.7073 142.861 63.7073C142.861 63.7073 142.893 63.6254 142.954 63.5339C142.886 63.4958 142.819 63.4529 142.756 63.4014C142.617 63.2869 142.509 63.1481 142.428 62.9954L142.392 63.0155C142.392 63.0155 140.779 64.0513 138.598 64.0147L138.414 62.1C138.414 62.1 141.31 61.4515 142.299 62.006Z" fill="#041F37"/>
</g>
<g id="turbo">
<path id="path128" d="M158.012 68.3565L146.817 60.5042L146.939 69.7587C146.939 69.7587 153.836 75.0319 155.097 75.2725C156.357 75.5136 158.012 68.3565 158.012 68.3565Z" fill="#041F37" fill-opacity="0.9"/>
<path id="path130" d="M149.058 71.2622C149.058 71.2622 145.586 69.3629 144.972 68.779C144.359 68.1947 140.292 60.6322 140.218 60.0133C140.143 59.3945 141.874 56.7576 141.874 56.7576L145.2 57.503L150.216 66.483L149.058 71.2622Z" fill="#A7A7A7"/>
<path id="path132" d="M155.726 70.1384C156.847 68.7744 156.743 66.836 155.493 65.8084C154.244 64.7807 152.322 65.053 151.2 66.417C150.079 67.7808 150.182 69.7197 151.432 70.7474C152.682 71.775 154.604 71.5023 155.726 70.1384Z" fill="#808080"/>
<path id="path134" d="M152.174 69.8449C151.369 69.1828 151.302 67.9338 152.025 67.055C152.747 66.1764 153.986 66.0006 154.791 66.6627C155.596 67.3247 155.663 68.5739 154.94 69.4525C154.218 70.3313 152.979 70.5069 152.174 69.8449ZM153.77 67.7338C153.506 67.5165 153.099 67.5746 152.862 67.863C152.624 68.1515 152.647 68.5616 152.911 68.7789C153.175 68.9964 153.582 68.9387 153.819 68.6503C154.056 68.3618 154.035 67.9513 153.77 67.7338Z" fill="#3C3C3C"/>
<path id="path136" d="M152.911 68.7789C152.647 68.5615 152.625 68.1514 152.862 67.863C153.099 67.5746 153.506 67.5165 153.77 67.7338C154.035 67.9513 154.056 68.3618 153.819 68.6503C153.582 68.9387 153.175 68.9963 152.911 68.7789Z" fill="#909090"/>
<path id="path162" d="M145.481 59.6609L148.383 64.7019C148.466 64.8462 148.516 65.01 148.53 65.1817L148.738 67.8048C148.751 67.967 148.59 68.1008 148.441 68.0526L145.93 67.2475C144.895 66.9152 144.051 66.1924 143.563 65.2182L141.028 60.1722C140.911 59.9382 141.076 59.6372 141.343 59.5968L144.363 59.1394C144.822 59.0697 145.258 59.2725 145.481 59.6609Z" fill="#E6E6E6"/>
<path id="path164" d="M147.447 65.1773L147.402 65.1264L145.418 61.9234C145.352 61.8165 145.388 61.6681 145.499 61.5915C145.589 61.5292 145.7 61.5339 145.775 61.5952C145.792 61.6092 145.807 61.6262 145.82 61.646L147.804 64.8486C147.87 64.9555 147.833 65.1041 147.722 65.1808C147.632 65.2428 147.521 65.2382 147.447 65.1773Z" fill="black" fill-opacity="0.33"/>
<path id="path166" d="M146.264 64.842L146.219 64.7905L144.235 61.588C144.169 61.481 144.205 61.3324 144.316 61.2559C144.407 61.1933 144.518 61.198 144.592 61.2592C144.61 61.2733 144.625 61.2904 144.637 61.3102L146.621 64.5131C146.687 64.6199 146.651 64.7683 146.54 64.8448C146.45 64.9072 146.338 64.9029 146.264 64.842Z" fill="black" fill-opacity="0.33"/>
<path id="path168" d="M145.255 64.6493L145.21 64.5983L143.226 61.3952C143.16 61.2884 143.197 61.14 143.308 61.0631C143.398 61.001 143.509 61.0054 143.584 61.0666C143.601 61.0806 143.616 61.0976 143.629 61.1174L145.612 64.3205C145.678 64.4273 145.642 64.5755 145.531 64.6526C145.441 64.7147 145.329 64.7102 145.255 64.6493Z" fill="black" fill-opacity="0.33"/>
</g>
<g id="head">
<path id="path122" d="M194.013 57.5733L191.262 63.1655C191.262 63.1655 190.676 63.1086 189.486 61.5998C189.486 61.5998 189.147 61.4796 188.99 62.6768C188.99 62.6768 187.169 64.4176 185.419 62.2885L186.125 57.8808C186.125 57.8808 191.029 56.2347 191.417 56.2353C191.805 56.236 194.013 57.5733 194.013 57.5733Z" fill="#CE7B02"/>
<path id="path124" d="M194.129 58.2001C194.129 58.2001 194.369 59.5646 193.852 60.7847C193.335 62.0045 191.852 62.8024 191.852 62.8024L194.129 58.2001Z" fill="#F4CC81"/>
<path id="path126" d="M193.982 57.5215L194.422 57.963L191.908 63.0602L191.275 63.1496L193.982 57.5215Z" fill="#999999"/>
<path id="path144" d="M191.435 52.9603L189.651 57.815C189.593 57.9712 189.428 58.064 189.277 58.0251C189.118 57.9845 189.034 57.8139 189.094 57.6489L190.867 52.7053L191.435 52.9603Z" fill="#ADADAD"/>
<path id="path156" d="M191.986 52.8822C191.335 53.6194 189.923 53.2023 189.923 53.2023C189.923 53.2023 192.149 49.7264 193.291 49.2852C193.291 49.2852 193.398 51.283 191.986 52.8822Z" fill="#CCCCCC"/>
<path id="path172" d="M188.05 59.3836C188.546 58.7802 188.5 57.9232 187.947 57.4685C187.395 57.0142 186.545 57.1344 186.048 57.7378C185.552 58.3413 185.599 59.1986 186.151 59.6529C186.704 60.1076 187.554 59.9871 188.05 59.3836Z" fill="#ADADAD"/>
<path id="path174" d="M187.654 58.9784C187.956 58.6114 187.928 58.0893 187.591 57.8125C187.255 57.536 186.737 57.6094 186.436 57.9764C186.133 58.3438 186.161 58.8659 186.498 59.1424C186.834 59.4193 187.352 59.3459 187.654 58.9784Z" fill="#4D4D4D"/>
<path id="path176" d="M190.796 57.582L191.218 56.6548L193.744 58.017L193.151 59.2487L190.796 57.582Z" fill="#DDA450"/>
<path id="path178" d="M193.151 59.2487L193.744 58.017L194.216 58.2715L193.578 59.5506L193.151 59.2487Z" fill="#B9B9B9"/>
</g>
<path id="path182" d="M169.509 64.973C169.508 64.9699 169.507 64.9674 169.505 64.9642C169.507 64.9674 169.507 64.9703 169.509 64.973ZM156.349 48.2021C156.95 48.6192 157.533 49.0623 158.099 49.5275C157.534 49.0627 156.95 48.6188 156.349 48.2021Z" fill="#D0D0D0"/>
<g id="body">
<path id="path138" d="M185.185 79.131C190.291 83.3297 189.142 89.814 189.142 89.814C189.142 89.814 184.904 85.2681 182.272 84.8023C179.641 84.3365 177.25 86.2981 174.349 83.9125L185.185 79.131Z" fill="#CE7B02"/>
<path id="path140" d="M153.519 48.184L150.417 46.1904L146.492 46.7052C146.492 46.7052 145.194 47.3089 146.673 48.5255C148.153 49.7421 153.519 48.184 153.519 48.184Z" fill="#F24738"/>
<path id="path142" d="M154.083 48.3558L152.534 47.4008L145.974 48.1632L146.631 49.0207L154.083 48.3558Z" fill="#CCCCCC"/>
<path id="path146" d="M169.505 64.9642C169.505 64.9642 166.814 65.4579 165.603 67.699C164.269 70.1692 163.404 72.2067 168.685 76.5485C173.356 80.3892 177.526 76.9727 180.025 73.933C182.524 70.8938 184.824 62.065 184.824 62.065L189.52 62.7415C189.52 62.7415 190.053 73.6259 187.629 79.7821C187.456 80.2209 186.96 80.4466 186.566 80.2574C185.898 79.9378 184.895 79.5505 184.218 79.7155C183.123 79.9826 171.27 87.053 168.148 84.12C160.905 77.3159 157.538 77.6256 156.146 76.4805C154.753 75.3354 156.47 68.0433 156.47 68.0433C156.47 68.0433 143.856 52.0995 143.71 49.3792C143.71 49.3792 146.623 47.8471 156.349 48.2021C156.349 48.2021 167.946 56.5706 169.505 64.9642Z" fill="#FFBC40"/>
<path id="path150" d="M155.816 71.6077C155.878 71.1572 155.948 70.719 156.018 70.3112C156.51 70.5078 157.004 70.6911 157.517 70.7454C158.886 70.8893 162.02 70.1795 165.171 65.3274C165.927 64.1618 167.176 63.3685 168.413 62.7259C168.895 63.6377 169.25 64.3835 169.471 64.8854C169.472 64.8877 169.472 64.8897 169.474 64.8922C169.481 64.9093 169.489 64.926 169.496 64.9423C169.496 64.9434 169.497 64.9444 169.497 64.9454C169.5 64.952 169.503 64.9581 169.505 64.9642C169.505 64.9642 169.504 64.9645 169.501 64.9653C169.404 64.9837 167.394 65.3853 166.101 66.9599C165.919 67.1806 165.752 67.424 165.606 67.6929C165.605 67.6951 165.604 67.697 165.603 67.699C164.269 70.1692 163.404 72.2067 168.685 76.5485C173.356 80.3892 177.526 76.9727 180.025 73.933C182.524 70.8938 184.824 62.065 184.824 62.065L187.626 62.4685C187.435 63.4467 187.108 64.2304 187.004 65.21C186.5 67.4631 186.269 68.6701 186.22 70.3315C186.166 72.2147 185.779 74.0083 185.191 75.8327C184.996 76.1367 184.775 76.4267 184.525 76.6991L184.421 76.7528C183.56 77.2416 177.554 80.0853 176.674 80.3333C175.474 80.6725 174.058 81.2632 172.835 81.4208C171.841 81.549 171.034 81.5714 170.09 81.233C165.111 78.3513 160.484 74.9449 155.816 71.6077Z" fill="#D09A35"/>
<path id="path152" d="M162.108 46.9938C163.906 48.4729 167.119 53.5556 169.671 55.6547C172.225 57.7542 175.541 59.1049 174.181 64.2456C173.812 65.6405 170.581 67.4411 169.505 64.9642C168.43 62.4877 163.722 53.3098 156.349 48.2021C156.349 48.2021 155.644 44.2186 157.837 43.9077C159.104 43.7282 162.108 46.9938 162.108 46.9938Z" fill="#041F37" fill-opacity="0.9"/>
<path id="path154" d="M155.651 65.2713C152.31 62.5242 144.22 49.5865 144.22 49.5865C144.22 49.5865 151.022 48.1743 159.668 55.2834C163.672 58.5754 160.766 65.1968 156.681 65.7763C156.435 65.8109 156.083 65.6259 155.651 65.2713Z" fill="#FFCF77"/>
<path id="path158" d="M147.048 49.5772C147.048 49.5772 150.457 50.0444 152.272 50.794C154.087 51.5438 153.012 49.0669 152.061 48.9224C151.11 48.7773 146.573 48.9731 147.048 49.5772Z" fill="#E6E6E6"/>
<path id="path160" d="M186.69 68.3843C186.981 66.2037 187.367 63.3137 187.725 62.4677C187.593 62.4482 187.461 62.4287 187.33 62.4099L187.274 62.4015C186.934 63.2652 186.66 65.106 186.225 68.3622C185.798 71.5683 185.21 75.9614 184.502 76.432C182.88 77.5087 173.293 82.097 170.638 81.2111C168.156 80.3829 158.018 72.6157 155.922 70.9978C155.894 71.0729 155.862 71.1465 155.827 71.2195C155.814 71.3439 155.798 71.466 155.775 71.5881C158.271 73.5188 167.933 80.852 170.439 81.6878C173.414 82.6804 183.228 77.8218 184.737 76.8199C185.582 76.2585 186.059 73.1152 186.69 68.3843Z" fill="#E6E6E6"/>
<path id="path170" d="M186.267 75.891C186.194 75.7918 186.169 75.6626 186.195 75.5353L187.19 70.6488C187.463 70.1849 187.68 70.6315 187.677 70.6895L187.033 76.3353C187.025 76.5224 186.788 76.6117 186.684 76.4675L186.267 75.891Z" fill="#E6E6E6"/>
<path id="path180" d="M188.548 88.0519C187.099 83.7824 183.907 81.1581 184.156 80.6194C184.404 80.0807 185.483 80.5431 185.483 80.5431C185.518 80.5712 185.553 80.5994 185.587 80.6276C188.893 83.346 188.548 88.0519 188.548 88.0519Z" fill="#DDA450"/>
<path id="path184" d="M170.105 65.7954C169.871 65.6029 169.667 65.3336 169.509 64.973C169.507 64.9703 169.507 64.9673 169.505 64.9642C169.502 64.9581 169.5 64.952 169.497 64.9454C169.497 64.9444 169.496 64.9434 169.496 64.9423C169.489 64.926 169.481 64.9093 169.474 64.8922C169.472 64.8897 169.472 64.8877 169.471 64.8854C168.425 62.5117 164.395 54.7052 158.101 49.5294C158.1 49.5287 158.1 49.5284 158.099 49.5276L158.099 49.5275C157.533 49.0623 156.95 48.6192 156.349 48.2021C156.349 48.2021 156.349 48.2021 156.348 48.202C156.348 48.202 156.348 48.202 156.348 48.2019C156.348 48.2017 156.348 48.2017 156.348 48.2013C156.348 48.2012 156.348 48.2012 156.348 48.2012C156.343 48.1734 156.234 47.5348 156.241 46.7577C156.338 46.8867 156.444 47.0098 156.562 47.1233C156.66 47.2189 156.762 47.3093 156.867 47.3959C157.643 48.0341 158.591 48.4575 159.393 49.0623C159.659 49.2626 159.923 49.4707 160.184 49.686C161.602 50.852 162.944 52.2208 164.048 53.6569C166.354 56.6587 167.687 60.3861 170.035 63.3399C170.395 63.7926 170.804 64.2509 171.268 64.6322C171.817 65.0838 172.443 65.4271 173.154 65.5256C172.253 66.171 170.972 66.5083 170.105 65.7954Z" fill="#3F3F3F"/>
</g>
</g>
</g>
<defs>
<linearGradient id="paint0_linear_1_3" x1="5.74719" y1="187.152" x2="188.63" y2="58.2256" gradientUnits="userSpaceOnUse">
<stop/>
<stop offset="0.477976" stop-color="#041F37"/>
<stop offset="1" stop-color="#F0E8DB"/>
</linearGradient>
<clipPath id="clip0_1_3">
<rect width="259" height="258" fill="white"/>
</clipPath>
</defs>
</svg>
