<svg width="50" height="50" viewBox="0 0 50 50" fill="none" xmlns="http://www.w3.org/2000/svg">
<rect width="50" height="50" rx="10.9375" fill="#CAF450"/>
<path d="M6.05469 18.3694V31.4906H15.9742V27.6014H10.8082V18.3694H6.05469Z" fill="black"/>
<path d="M22.287 18.8212C22.287 17.3283 21.0298 16.6016 19.7727 16.6016C18.5156 16.6016 17.2585 17.3283 17.2585 18.8212C17.2585 20.314 18.5156 21.0408 19.7727 21.0408C21.0298 21.0408 22.287 20.314 22.287 18.8212ZM17.4353 21.4336V31.4906H22.1102V21.4336H17.4353Z" fill="black"/>
<path d="M27.9767 21.4336H23.8321V31.4906H28.5071V26.3836C28.5071 25.4211 28.8803 25.0086 29.3713 25.0086C29.9803 25.0086 30.1178 25.4211 30.1178 26.1282V31.4906H34.7927V24.4979C34.7927 22.2586 33.4177 21.1979 31.6106 21.1979C30.1767 21.1979 28.9785 21.9443 28.5464 23.339L27.9767 21.4336Z" fill="black"/>
<path d="M44.2029 37.0888C43.8493 37.0888 43.5547 36.9382 43.319 36.637C43.0963 36.3489 42.913 36.0084 42.769 35.6156C42.5987 35.1442 42.4743 34.6596 42.3958 34.162C42.3303 33.6644 42.2779 33.1733 42.2386 32.6888C42.1993 32.1912 42.1797 31.7002 42.1797 31.2156C42.1797 30.6656 42.1993 30.1157 42.2386 29.5657L42.16 29.6835C41.8458 30.1549 41.4726 30.5936 41.0404 30.9996C40.6083 31.3924 40.1041 31.6412 39.5279 31.746C39.2922 31.7853 39.0762 31.8049 38.8797 31.8049C38.3166 31.8049 37.8387 31.6609 37.4458 31.3728C37.053 31.0847 36.7387 30.7049 36.503 30.2335C36.2673 29.7621 36.1101 29.2448 36.0316 28.6817C35.9923 28.3806 35.9726 28.0728 35.9726 27.7585C35.9726 26.9205 36.1298 26.0824 36.4441 25.2443C36.7583 24.4062 37.2298 23.7187 37.8583 23.1818C38.3166 22.789 38.7946 22.4747 39.2922 22.239C39.7898 21.9902 40.3005 21.8658 40.8243 21.8658C41.5315 21.8658 42.088 22.0295 42.494 22.3568C42.913 22.6842 43.188 23.0509 43.319 23.4568C43.3582 23.3128 43.4041 23.1491 43.4565 22.9658C43.5219 22.7824 43.6136 22.6318 43.7314 22.514C43.8493 22.383 44.0064 22.3372 44.2029 22.3765C44.3731 22.4158 44.4844 22.4812 44.5368 22.5729C44.6023 22.6515 44.635 22.7497 44.635 22.8675C44.635 23.0378 44.5957 23.2146 44.5172 23.3979C44.4386 23.5681 44.3731 23.7122 44.3207 23.83C44.1505 24.2229 43.9934 24.727 43.8493 25.3425C43.7184 25.9449 43.6005 26.6062 43.4957 27.3264C43.4041 28.0466 43.3321 28.7669 43.2797 29.4871C43.2273 30.2073 43.2011 30.8621 43.2011 31.4514C43.2011 31.6609 43.2011 31.8573 43.2011 32.0406C43.2142 32.2371 43.2273 32.4138 43.2404 32.571C43.2666 32.846 43.3124 33.2061 43.3779 33.6513C43.4565 34.1096 43.5547 34.5352 43.6725 34.9281C43.7642 35.2293 43.8624 35.4846 43.9672 35.6941C44.085 35.9168 44.216 36.0281 44.36 36.0281C44.3993 36.0281 44.432 36.015 44.4582 35.9888C44.4975 35.9757 44.5368 35.9626 44.5761 35.9495C44.6808 35.884 44.766 35.8513 44.8314 35.8513C44.9493 35.8513 45.0475 35.9037 45.1261 36.0084C45.2046 36.1263 45.2439 36.2572 45.2439 36.4013C45.2439 36.4929 45.2243 36.5781 45.185 36.6566C45.1457 36.7483 45.0737 36.8203 44.9689 36.8727C44.7201 37.0167 44.4648 37.0888 44.2029 37.0888ZM38.8797 30.7639C39.4035 30.7639 39.875 30.6002 40.294 30.2728C40.7261 29.9454 41.0732 29.5722 41.3351 29.1532C41.7279 28.5377 42.0356 27.9091 42.2583 27.2675C42.4809 26.6258 42.6773 25.958 42.8475 25.2639C42.7297 25.3425 42.5987 25.3818 42.4547 25.3818C42.2975 25.3818 42.1731 25.336 42.0815 25.2443C42.0029 25.1526 41.9636 25.0479 41.9636 24.93C41.9636 24.7467 42.0487 24.5764 42.219 24.4193L42.3172 24.3407C42.3827 24.2753 42.4154 24.2098 42.4154 24.1443C42.4154 23.7515 42.291 23.4634 42.0422 23.28C41.7934 23.0836 41.4791 22.9527 41.0993 22.8872C41.047 22.8741 40.9618 22.8675 40.844 22.8675C40.4642 22.8675 40.0648 22.9789 39.6458 23.2015C39.2268 23.4241 38.8666 23.6598 38.5655 23.9086C38.2774 24.1443 38.022 24.4913 37.7994 24.9497C37.5899 25.408 37.4196 25.9121 37.2887 26.4621C37.1708 26.999 37.1119 27.5359 37.1119 28.0728C37.1119 28.5573 37.1708 29.0026 37.2887 29.4085C37.4065 29.8145 37.5964 30.1418 37.8583 30.3907C38.1202 30.6395 38.4607 30.7639 38.8797 30.7639Z" fill="black"/>
</svg>
