<svg width="178" height="92" viewBox="0 0 178 92" fill="none" xmlns="http://www.w3.org/2000/svg">
<rect width="178" height="92" fill="#1E1E1E"/>
<g id="Preloader">
<rect width="1440" height="843" transform="translate(-187 -421)" fill="white"/>
<g id="info-svg">
<g id="Group" filter="url(#filter0_d_0_1)">
<path id="Vector" d="M97.3601 50.1654C97.3601 45.3937 93.4918 41.5254 88.7201 41.5254C83.9484 41.5254 80.0801 45.3937 80.0801 50.1654C80.0801 54.9371 83.9484 58.8054 88.7201 58.8054C93.4918 58.8054 97.3601 54.9371 97.3601 50.1654Z" fill="white"/>
</g>
<g id="Group_2" filter="url(#filter1_d_0_1)">
<path id="Vector_2" d="M149.641 5.80566H28.3607C16.9615 5.80566 7.7207 15.0465 7.7207 26.4457C7.7207 37.8448 16.9615 47.0857 28.3607 47.0857H149.641C161.04 47.0857 170.281 37.8448 170.281 26.4457C170.281 15.0465 161.04 5.80566 149.641 5.80566Z" fill="white" fill-opacity="0.8"/>
<path id="Vector_3" d="M31.9754 23.4863L30.3827 28.1432H33.6083L32.0157 23.4863H31.9754ZM35.4429 33.4453L34.4752 30.6431H29.536L28.5683 33.4453H25.2419L30.1408 19.9784H33.9914L38.8902 33.4453H35.4429ZM47.3004 23.0831L47.1391 26.4498C46.8166 26.3087 46.3529 26.228 45.8691 26.228C44.6595 26.228 43.6515 27.0143 43.6515 28.748V33.4453H40.3251V23.2444H43.2079L43.591 25.5628C43.9942 23.829 45.3651 22.7404 47.3004 23.0831ZM55.7661 23.0831L55.6048 26.4498C55.2822 26.3087 54.8185 26.228 54.3347 26.228C53.1251 26.228 52.1171 27.0143 52.1171 28.748V33.4453H48.7907V23.2444H51.6736L52.0566 25.5628C52.4598 23.829 53.8307 22.7404 55.7661 23.0831ZM60.865 20.3816C60.865 21.5106 59.9376 22.1557 58.9296 22.1557C57.9216 22.1557 56.9942 21.5106 56.9942 20.3816C56.9942 19.2325 57.9216 18.5874 58.9296 18.5874C59.9376 18.5874 60.865 19.2325 60.865 20.3816ZM57.2563 23.2444H60.5827V33.4453H57.2563V23.2444ZM67.4609 29.8165H67.5012L69.618 23.2444H72.8033L69.0535 33.4453H65.7876L62.0379 23.2444H65.5054L67.4609 29.8165ZM77.8159 20.3816C77.8159 21.5106 76.8885 22.1557 75.8805 22.1557C74.8725 22.1557 73.9452 21.5106 73.9452 20.3816C73.9452 19.2325 74.8725 18.5874 75.8805 18.5874C76.8885 18.5874 77.8159 19.2325 77.8159 20.3816ZM74.2073 23.2444H77.5337V33.4453H74.2073V23.2444ZM82.7789 23.2444L83.1821 25.1999C83.6861 23.7887 84.9158 23.0024 86.448 23.0024C88.2826 23.0024 89.6333 24.1314 89.6333 26.3087V33.4453H86.3069V27.3772C86.3069 26.3692 85.944 25.7644 84.9763 25.7644C84.049 25.7644 83.2627 26.3692 83.2627 27.9215V33.4453H79.9363V23.2444H82.7789ZM94.8089 26.4296C94.8089 27.357 95.2927 27.9416 96.1798 27.9416C97.0265 27.9416 97.5305 27.3973 97.5305 26.4296C97.5305 25.4418 97.0265 24.9176 96.1798 24.9176C95.2927 24.9176 94.8089 25.462 94.8089 26.4296ZM101.845 33.8888C101.845 36.6709 98.8207 37.6789 95.837 37.6789C93.438 37.6789 90.8978 37.054 90.8978 35.1388C90.8978 34.0703 91.805 33.3848 93.0953 33.2034C92.2486 32.9615 91.6438 32.2962 91.6438 31.3084C91.6438 30.2802 92.4502 29.5343 93.4985 29.2924C92.309 28.748 91.5631 27.8005 91.5631 26.4498C91.5631 24.212 93.4178 23.0024 96.1798 23.0024C97.2482 23.0024 98.1958 23.2242 98.9618 23.6072C99.2844 23.2444 99.4457 22.5791 99.5062 21.9541L102.147 22.821C102.006 23.8693 101.139 24.5144 100.272 24.716C100.615 25.1999 100.817 25.7845 100.817 26.4498C100.817 28.7279 98.8006 29.8165 96.1798 29.8165C95.6758 29.8165 95.1919 29.7762 94.7282 29.6754C94.4258 29.8165 94.2444 30.0181 94.2444 30.3205C94.2444 30.6834 94.5468 30.8245 94.95 30.8245H97.6514C100.474 30.8245 101.845 31.893 101.845 33.8888ZM93.5791 34.5743C93.5791 35.3404 94.4863 35.7032 95.958 35.7032C97.7724 35.7032 98.9417 35.3202 98.9417 34.4936C98.9417 33.9493 98.4578 33.6872 97.6313 33.6872H94.7484C94.0428 33.6872 93.5791 34.0098 93.5791 34.5743ZM117.229 30.6028V33.4453H107.29V31.0463C111.302 28.0424 113.6 26.47 113.6 24.2725C113.6 23.1637 112.975 22.4581 111.947 22.4581C110.959 22.4581 110.334 23.1839 110.334 24.1112C110.334 24.5749 110.516 24.9378 110.758 25.2604L107.976 26.4095C107.472 25.7845 107.169 24.958 107.169 23.9701C107.169 21.813 108.883 19.7365 112.088 19.7365C115.213 19.7365 116.987 21.5711 116.987 24.1919C116.987 26.9538 114.225 29.2117 111.806 30.6028H117.229ZM123.879 19.7365C127.448 19.7365 129.504 22.7202 129.504 26.7119C129.504 30.7036 127.448 33.6872 123.879 33.6872C120.311 33.6872 118.275 30.7036 118.275 26.7119C118.275 22.7202 120.311 19.7365 123.879 19.7365ZM123.879 30.885C125.532 30.885 126.198 29.1916 126.198 26.7119C126.198 24.2322 125.532 22.5388 123.879 22.5388C122.226 22.5388 121.581 24.2322 121.581 26.7119C121.581 29.1916 122.226 30.885 123.879 30.885ZM140.756 30.6028V33.4453H130.817V31.0463C134.829 28.0424 137.127 26.47 137.127 24.2725C137.127 23.1637 136.502 22.4581 135.474 22.4581C134.486 22.4581 133.861 23.1839 133.861 24.1112C133.861 24.5749 134.042 24.9378 134.284 25.2604L131.502 26.4095C130.998 25.7845 130.696 24.958 130.696 23.9701C130.696 21.813 132.409 19.7365 135.615 19.7365C138.74 19.7365 140.514 21.5711 140.514 24.1919C140.514 26.9538 137.752 29.2117 135.333 30.6028H140.756ZM148.938 26.5506V26.5909C150.652 26.853 151.68 28.1432 151.68 29.6956C151.68 32.2156 149.462 33.6872 146.559 33.6872C143.777 33.6872 141.801 32.1954 141.418 30.1996L144.321 29.1109C144.543 30.3407 145.249 31.1269 146.519 31.1269C147.607 31.1269 148.434 30.5423 148.434 29.4335C148.434 28.365 147.648 27.7804 146.317 27.7804H144.946V25.5829H146.216C147.607 25.5829 148.152 24.9378 148.152 23.8895C148.152 23.0629 147.547 22.4178 146.559 22.4178C145.45 22.4178 144.846 23.204 144.684 24.3128L141.862 23.2242C142.305 21.2284 144.079 19.7365 146.741 19.7365C149.543 19.7365 151.357 21.1679 151.357 23.4661C151.357 25.0991 150.41 26.2684 148.938 26.5506Z" fill="#252631"/>
</g>
</g>
</g>
<defs>
<filter id="filter0_d_0_1" x="52.7201" y="19.9254" width="72" height="72" filterUnits="userSpaceOnUse" color-interpolation-filters="sRGB">
<feFlood flood-opacity="0" result="BackgroundImageFix"/>
<feColorMatrix in="SourceAlpha" type="matrix" values="0 0 0 0 0 0 0 0 0 0 0 0 0 0 0 0 0 0 127 0" result="hardAlpha"/>
<feOffset dy="5.76"/>
<feGaussianBlur stdDeviation="13.68"/>
<feComposite in2="hardAlpha" operator="out"/>
<feColorMatrix type="matrix" values="0 0 0 0 0 0 0 0 0 0 0 0 0 0 0 0 0 0 0.15 0"/>
<feBlend mode="normal" in2="BackgroundImageFix" result="effect1_dropShadow_0_1"/>
<feBlend mode="normal" in="SourceGraphic" in2="effect1_dropShadow_0_1" result="shape"/>
</filter>
<filter id="filter1_d_0_1" x="0.589283" y="0.457104" width="176.823" height="55.5429" filterUnits="userSpaceOnUse" color-interpolation-filters="sRGB">
<feFlood flood-opacity="0" result="BackgroundImageFix"/>
<feColorMatrix in="SourceAlpha" type="matrix" values="0 0 0 0 0 0 0 0 0 0 0 0 0 0 0 0 0 0 127 0" result="hardAlpha"/>
<feOffset dy="1.78286"/>
<feGaussianBlur stdDeviation="3.56571"/>
<feComposite in2="hardAlpha" operator="out"/>
<feColorMatrix type="matrix" values="0 0 0 0 0.447059 0 0 0 0 0.447059 0 0 0 0 0.447059 0 0 0 0.25 0"/>
<feBlend mode="normal" in2="BackgroundImageFix" result="effect1_dropShadow_0_1"/>
<feBlend mode="normal" in="SourceGraphic" in2="effect1_dropShadow_0_1" result="shape"/>
</filter>
</defs>
</svg>
