<svg width="17" height="17" viewBox="0 0 17 17" fill="none" xmlns="http://www.w3.org/2000/svg">
<path d="M15.2354 8.05623C15.2354 11.9865 12.0492 15.173 8.1187 15.173C4.18849 15.173 1.00201 11.9865 1.00201 8.05623C1.00201 4.12565 4.18849 0.939415 8.1187 0.939415C12.0492 0.939415 15.2354 4.12565 15.2354 8.05623Z" fill="white"/>
<path d="M12.3228 10.0921C12.3228 11.2604 11.3756 12.2077 10.2073 12.2077H6.14131C4.97298 12.2077 4.0258 11.2604 4.0258 10.0921V6.02607C4.0258 4.85771 4.97298 3.9105 6.14131 3.9105H10.2073C11.3756 3.9105 12.3228 4.85771 12.3228 6.02607V10.0921ZM13.2877 6.02607C13.2877 4.32463 11.9084 2.94562 10.2073 2.94562H6.14131C4.4399 2.94562 3.06092 4.32463 3.06092 6.02607V10.0921C3.06092 11.7932 4.4399 13.1726 6.14131 13.1726H10.2073C11.9084 13.1726 13.2877 11.7932 13.2877 10.0921V6.02607ZM8.19153 9.74299C7.29947 9.74299 6.57402 9.01722 6.57402 8.12515C6.57402 7.23307 7.29947 6.50732 8.19153 6.50732C9.08389 6.50732 9.80933 7.23307 9.80933 8.12515C9.80933 9.01722 9.08389 9.74299 8.19153 9.74299ZM8.19153 5.59937C6.79936 5.59937 5.66607 6.73235 5.66607 8.12515C5.66607 9.51764 6.79936 10.6506 8.19153 10.6506C9.584 10.6506 10.7173 9.51764 10.7173 8.12515C10.7173 6.73235 9.584 5.59937 8.19153 5.59937ZM10.8644 4.82865C10.5327 4.82865 10.2633 5.09774 10.2633 5.42976C10.2633 5.76178 10.5327 6.03087 10.8644 6.03087C11.1964 6.03087 11.4658 5.76178 11.4658 5.42976C11.4658 5.09774 11.1964 4.82865 10.8644 4.82865ZM8.12471 16.25C3.64494 16.25 0 12.605 0 8.12515C0 3.645 3.64494 7.04222e-08 8.12471 7.04222e-08C12.6051 7.04222e-08 16.25 3.645 16.25 8.12515C16.25 12.605 12.6051 16.25 8.12471 16.25Z" fill="#808080"/>
</svg>
