<svg width="390" height="304" class="illustration" id="left-sidebar-illustration-one" viewBox="0 0 390 304" fill="none" xmlns="http://www.w3.org/2000/svg">
<g id="left-sidebar-illustrated-btns 1" clip-path="url(#clip0_5_135)">
<g id="eventBubble">
<mask id="mask0_5_135" style="mask-type:luminance" maskUnits="userSpaceOnUse" x="139" y="8" width="180" height="101">
<g id="clip0_24_204">
<path id="Vector" d="M273.499 9.29434L165.78 38.081C146.571 43.2142 135.161 62.9467 140.294 82.1549C145.427 101.363 165.16 112.773 184.368 107.64L292.088 78.8534C311.296 73.7202 322.706 53.9877 317.573 34.7795C312.44 15.5713 292.708 4.16121 273.499 9.29434Z" fill="white"/>
</g>
</mask>
<g mask="url(#mask0_5_135)">
<g id="Group">
<path id="Vector_2" d="M273.499 9.29434L165.78 38.081C146.571 43.2142 135.161 62.9467 140.294 82.1549C145.427 101.363 165.16 112.773 184.368 107.64L292.088 78.8534C311.296 73.7202 322.706 53.9877 317.573 34.7795C312.44 15.5713 292.708 4.16121 273.499 9.29434Z" fill="#CAF450"/>
<g id="Clip path group">
<mask id="mask1_5_135" style="mask-type:luminance" maskUnits="userSpaceOnUse" x="153" y="50" width="45" height="45">
<g id="clip1_24_204">
<path id="Vector_3" d="M187.817 50.8235L153.037 60.1179L162.331 94.8974L197.111 85.6031L187.817 50.8235Z" fill="white"/>
</g>
</mask>
<g mask="url(#mask1_5_135)">
<g id="Group_2">
<g id="Clip path group_2">
<mask id="mask2_5_135" style="mask-type:luminance" maskUnits="userSpaceOnUse" x="153" y="50" width="45" height="45">
<g id="clip2_24_204">
<path id="event" d="M187.817 50.8235L153.037 60.1179L162.331 94.8974L197.111 85.6031L187.817 50.8235Z" fill="white"/>
</g>
</mask>
<g mask="url(#mask2_5_135)">
<g id="Group_3">
<path id="Vector_4" d="M186.069 67.8301C185.06 65.4546 183.3 63.3747 180.894 61.9833C174.998 58.5741 167.454 60.5899 164.045 66.4859C160.636 72.3819 162.652 79.9253 168.548 83.3345C171.392 84.979 174.619 85.3613 177.58 84.6546" stroke="black" stroke-width="4.05" stroke-linejoin="round"/>
<path id="Vector_5" d="M186.407 73.3331L182.236 81.1422" stroke="black" stroke-width="4.05" stroke-linecap="square" stroke-linejoin="round"/>
<path id="Vector_6" d="M182.075 73.529L186.566 80.946" stroke="black" stroke-width="4.05" stroke-linecap="square" stroke-linejoin="round"/>
<path id="Vector_7" d="M179.99 77.4335L188.651 77.0415" stroke="black" stroke-width="4.05" stroke-linecap="square" stroke-linejoin="round"/>
</g>
</g>
</g>
</g>
</g>
</g>
<path id="Vector_8" d="M219.136 68.9829L220.006 72.2391L206.403 75.8744L200.97 55.5457L214.573 51.9105L215.443 55.1667L205.553 57.8098L206.952 63.0441L215.747 60.6938L216.56 63.737L207.765 66.0873L209.245 71.626L219.136 68.9829ZM228.547 65.6202L228.607 65.6039L229.342 53.3437L232.963 52.376L231.454 69.1797L227.711 70.18L217.99 56.3772L221.947 55.3199L228.547 65.6202ZM245.137 62.8495C246.689 62.4347 247.597 61.442 247.576 59.6544L250.949 59.8291C250.924 63.0311 248.701 64.9619 245.871 65.7182C241.458 66.8975 237.894 64.785 236.544 59.7333C235.21 54.7425 237.172 50.8598 241.616 49.6724C245.785 48.5582 248.726 50.9023 249.718 54.615C249.93 55.4063 249.997 56.2686 249.959 56.7353L240.281 59.3215C241.129 62.1272 242.915 63.4432 245.137 62.8495ZM239.789 57.2358L246.119 55.5442C246.085 55.2927 246.003 54.9883 245.946 54.7753C245.491 53.0711 244.135 51.901 242.278 52.3971C240.27 52.9339 239.382 54.7362 239.789 57.2358ZM254.596 46.5947L255.842 49.4247C256.064 47.083 257.603 45.4 259.946 44.7738C262.746 44.0256 265.196 45.2621 266.05 48.4574L268.912 59.1695L265.139 60.178L262.552 50.5006C262.097 48.7964 261.035 47.8737 259.301 48.3372C257.505 48.8171 256.307 50.3111 257.063 53.1413L259.357 61.7232L255.613 62.7235L251.523 47.4161L254.596 46.5947ZM280.914 52.2127L282.171 54.8437C281.384 55.8039 280.151 56.5574 278.812 56.9152C275.769 57.7285 273.4 56.7963 272.538 53.5705L270.351 45.3843L268.281 45.9373L267.533 43.1376L269.602 42.5846L268.732 39.3283L272.376 37.833L273.376 41.5761L277.667 40.4294L278.415 43.2292L274.124 44.3759L276.19 52.1056C276.58 53.5664 277.504 53.9717 278.691 53.6545C279.604 53.4105 280.208 52.9882 280.914 52.2127ZM283.027 51.2894L286.071 49.628C286.667 51.0014 288.205 51.6336 289.848 51.1945C291.461 50.7634 292.356 49.8397 292.014 48.5616C291.111 45.1836 283.336 50.1306 281.742 44.1659C280.913 41.0619 283.058 38.5974 286.375 37.7109C289.875 36.7757 292.359 37.7747 293.473 40.4769L290.322 41.7427C289.851 40.4666 288.732 39.82 287.089 40.2591C285.567 40.6657 284.85 41.6401 285.183 42.8878C286.078 46.2353 293.842 41.128 295.485 47.2753C296.323 50.4098 294.131 52.8215 290.509 53.7893C287.253 54.6595 284.306 53.8819 283.027 51.2894Z" fill="black"/>
</g>
</g>
</g>
<g id="likeBubble">
<mask id="mask3_5_135" style="mask-type:luminance" maskUnits="userSpaceOnUse" x="116" y="199" width="162" height="97">
<g id="clip3_24_204">
<path id="Vector_9" d="M250.94 224.908L161.715 200.511C142.537 195.267 122.739 206.563 117.495 225.741C112.251 244.919 123.547 264.718 142.725 269.962L231.95 294.359C251.128 299.603 270.926 288.307 276.17 269.129C281.414 249.95 270.118 230.152 250.94 224.908Z" fill="white"/>
</g>
</mask>
<g mask="url(#mask3_5_135)">
<g id="Group_4">
<path id="Vector_10" d="M250.94 224.908L161.715 200.511C142.537 195.267 122.739 206.563 117.495 225.741C112.251 244.919 123.547 264.718 142.725 269.962L231.95 294.359C251.128 299.603 270.926 288.307 276.17 269.129C281.414 249.95 270.118 230.152 250.94 224.908Z" fill="black"/>
<g id="Clip path group_3">
<mask id="mask4_5_135" style="mask-type:luminance" maskUnits="userSpaceOnUse" x="130" y="213" width="45" height="45">
<g id="clip4_24_204">
<path id="Vector_11" d="M174.33 222.621L139.605 213.126L130.11 247.851L164.835 257.346L174.33 222.621Z" fill="white"/>
</g>
</mask>
<g mask="url(#mask4_5_135)">
<g id="Group_5">
<g id="Clip path group_4">
<mask id="mask5_5_135" style="mask-type:luminance" maskUnits="userSpaceOnUse" x="130" y="213" width="45" height="45">
<g id="clip5_24_204">
<path id="Vector_12" d="M174.33 222.621L139.605 213.126L130.11 247.851L164.835 257.346L174.33 222.621Z" fill="white"/>
</g>
</mask>
<g mask="url(#mask5_5_135)">
<g id="Group_6">
<path id="heart" d="M149.9 246.708L163.016 238.729C166.242 236.755 167.794 232.511 166.192 229.089C165.791 228.227 165.225 227.465 164.527 226.85C163.83 226.235 163.016 225.779 162.136 225.51C161.255 225.241 160.327 225.165 159.407 225.287C158.487 225.408 157.595 225.725 156.785 226.217L154.32 227.727L153.154 225.524C151.365 222.193 147.363 220.685 144.055 222.465C143.222 222.91 142.48 223.526 141.873 224.276C141.267 225.026 140.809 225.893 140.527 226.825C140.246 227.757 140.147 228.734 140.237 229.697C140.326 230.659 140.602 231.586 141.048 232.422L148.468 246.316C148.604 246.568 148.83 246.75 149.099 246.823C149.367 246.897 149.655 246.855 149.9 246.708Z" stroke="white" stroke-width="4.5" stroke-linecap="round" stroke-linejoin="round"/>
</g>
</g>
</g>
</g>
</g>
</g>
<path id="Vector_13" d="M183.313 233.328L187.172 234.383L182.511 251.429L192.052 254.037L191.163 257.289L177.763 253.625L183.313 233.328ZM204.208 239.629C203.834 240.996 202.499 241.578 201.223 241.229C199.947 240.88 199.124 239.708 199.498 238.341C199.872 236.974 201.177 236.383 202.453 236.732C203.729 237.081 204.582 238.262 204.208 239.629ZM198.763 242.941L202.5 243.962L198.321 259.246L194.584 258.224L198.763 242.941ZM213.206 254.433L217.053 264.368L212.678 263.171L209.539 255.063L208.415 254.756L206.57 261.501L202.833 260.48L208.832 238.542L212.569 239.564L209.171 251.991L210.356 252.315L216.462 247.78L220.685 248.935L213.206 254.433ZM225.974 264.129C227.524 264.553 228.809 264.153 229.691 262.598L232.516 264.449C230.881 267.202 227.988 267.75 225.163 266.977C220.757 265.772 218.742 262.152 220.122 257.108C221.484 252.125 225.135 249.76 229.571 250.973C233.734 252.111 235.094 255.618 234.08 259.325C233.864 260.115 233.488 260.894 233.22 261.277L223.557 258.635C222.876 261.486 223.756 263.523 225.974 264.129ZM224.183 256.586L230.503 258.314C230.6 258.079 230.683 257.775 230.741 257.563C231.207 255.861 230.625 254.167 228.771 253.66C226.766 253.112 225.091 254.222 224.183 256.586ZM246.872 265.239L247.503 262.93C248.226 260.286 246.733 258.702 245.183 258.279C243.056 257.697 241.11 258.961 240.105 262.638C239.233 265.828 240.135 267.903 242.322 268.502C244.024 268.967 246.066 268.186 246.872 265.239ZM245.596 272.173L245.982 269.208C244.677 271.235 242.489 271.715 240.331 271.125C236.928 270.194 234.864 266.756 236.243 261.712C237.689 256.425 241.064 254.115 244.953 255.179C247.262 255.81 248.452 257.311 248.65 258.737L251.018 250.077L254.755 251.099L248.756 273.037L245.596 272.173Z" fill="white"/>
</g>
</g>
</g>
<g id="friendsBubble">
<mask id="mask6_5_135" style="mask-type:luminance" maskUnits="userSpaceOnUse" x="193" y="98" width="189" height="104">
<g id="clip6_24_204">
<path id="Vector_14" d="M336.167 99.3328L219.773 130.521C200.569 135.666 189.172 155.407 194.317 174.611C199.463 193.816 219.204 205.213 238.408 200.067L354.802 168.879C374.007 163.734 385.404 143.993 380.258 124.789C375.112 105.584 355.372 94.1869 336.167 99.3328Z" fill="white"/>
</g>
</mask>
<g mask="url(#mask6_5_135)">
<g id="Group_7">
<path id="Vector_15" d="M336.167 99.3328L219.773 130.521C200.569 135.666 189.172 155.407 194.317 174.611C199.463 193.816 219.204 205.213 238.408 200.067L354.802 168.879C374.007 163.734 385.404 143.993 380.258 124.789C375.112 105.584 355.372 94.1869 336.167 99.3328Z" fill="black"/>
<g id="Clip path group_5">
<mask id="mask7_5_135" style="mask-type:luminance" maskUnits="userSpaceOnUse" x="207" y="143" width="45" height="45">
<g id="clip7_24_204">
<path id="Vector_16" d="M241.818 143.249L207.045 152.566L216.362 187.339L251.136 178.022L241.818 143.249Z" fill="white"/>
</g>
</mask>
<g mask="url(#mask7_5_135)">
<g id="Group_8">
<g id="Clip path group_6">
<mask id="mask8_5_135" style="mask-type:luminance" maskUnits="userSpaceOnUse" x="207" y="143" width="45" height="45">
<g id="clip8_24_204">
<path id="Vector_17" d="M241.818 143.249L207.045 152.566L216.362 187.339L251.136 178.022L241.818 143.249Z" fill="white"/>
</g>
</mask>
<g mask="url(#mask8_5_135)">
<g id="person">
<path id="Vector_18" d="M229.054 165.048C231.054 164.512 232.241 162.456 231.705 160.455C231.169 158.455 229.113 157.268 227.112 157.804C225.112 158.34 223.925 160.396 224.461 162.397C224.997 164.397 227.053 165.584 229.054 165.048Z" fill="white"/>
<path id="Vector_19" d="M243.217 171.543L235.671 173.565L232.59 178.465L227.591 175.731L219.981 177.77L214.33 156.679L225.921 153.574L237.566 150.453L243.217 171.543Z" stroke="white" stroke-width="3.2175" stroke-linecap="square" stroke-linejoin="round"/>
<path id="Vector_20" d="M223.936 170.534L236.184 167.253" stroke="white" stroke-width="3.2175"/>
</g>
</g>
</g>
</g>
</g>
</g>
<path id="Vector_21" d="M264.255 167.26L260.422 168.287L254.975 147.962L268.181 144.424L269.053 147.679L259.682 150.191L261.214 155.911L269.521 153.685L270.369 156.849L262.062 159.075L264.255 167.26ZM281.756 145.906L282.57 149.797C282.172 149.773 281.509 149.853 280.961 150C278.831 150.571 277.604 152.563 278.403 155.545L280.384 162.938L276.642 163.941L272.541 148.636L275.705 147.788L277.126 151.386C277.047 148.538 278.718 146.133 281.756 145.906ZM287.695 139.782C288.062 141.151 287.203 142.327 285.925 142.67C284.647 143.012 283.345 142.415 282.979 141.046C282.612 139.677 283.44 138.509 284.718 138.166C285.996 137.824 287.328 138.413 287.695 139.782ZM284.664 145.388L288.406 144.385L292.507 159.69L288.765 160.693L284.664 145.388ZM302.594 154.313C304.146 153.897 305.054 152.904 305.031 151.116L308.404 151.289C308.381 154.491 306.16 156.423 303.33 157.181C298.918 158.363 295.352 156.253 293.999 151.202C292.662 146.213 294.622 142.329 299.064 141.138C303.232 140.021 306.175 142.363 307.17 146.075C307.382 146.867 307.45 147.729 307.412 148.196L297.736 150.788C298.586 153.593 300.373 154.908 302.594 154.313ZM297.243 148.703L303.571 147.007C303.537 146.755 303.455 146.451 303.398 146.238C302.941 144.534 301.585 143.365 299.729 143.862C297.72 144.401 296.834 146.203 297.243 148.703ZM312.043 138.052L313.29 140.881C313.51 138.539 315.048 136.855 317.391 136.227C320.19 135.477 322.641 136.712 323.497 139.907L326.367 150.617L322.594 151.628L320.001 141.952C319.545 140.249 318.482 139.327 316.748 139.791C314.953 140.272 313.756 141.767 314.514 144.597L316.813 153.177L313.07 154.18L308.969 138.875L312.043 138.052ZM338.67 140.048L338.05 137.736C337.341 135.089 335.252 134.474 333.7 134.89C331.571 135.461 330.528 137.534 331.515 141.215C332.371 144.41 334.196 145.747 336.387 145.16C338.091 144.704 339.461 143 338.67 140.048ZM341.066 146.679L339.904 143.924C339.799 146.333 338.152 147.851 335.991 148.43C332.583 149.343 329.067 147.415 327.713 142.364C326.295 137.07 328.044 133.373 331.938 132.33C334.251 131.71 336.035 132.406 336.925 133.537L334.602 124.865L338.344 123.863L344.23 145.831L341.066 146.679ZM346.3 141.167L349.343 139.504C349.94 140.877 351.478 141.508 353.121 141.068C354.734 140.636 355.628 139.711 355.285 138.433C354.38 135.056 346.609 140.008 345.011 134.045C344.179 130.941 346.323 128.475 349.64 127.586C353.139 126.649 355.623 127.646 356.739 130.348L353.589 131.616C353.117 130.34 351.998 129.694 350.355 130.134C348.833 130.542 348.116 131.517 348.451 132.764C349.347 136.111 357.109 130.999 358.756 137.145C359.595 140.279 357.405 142.692 353.784 143.662C350.528 144.534 347.581 143.759 346.3 141.167Z" fill="white"/>
</g>
</g>
</g>
<g id="placeBubble">
<path id="vector" d="M143.5 103.016H36C16.1177 103.016 0 119.134 0 139.016C0 158.898 16.1177 175.016 36 175.016H143.5C163.382 175.016 179.5 158.898 179.5 139.016C179.5 119.134 163.382 103.016 143.5 103.016Z" fill="black"/>
<mask id="mask9_5_135" style="mask-type:luminance" maskUnits="userSpaceOnUse" x="18" y="121" width="36" height="37">
<g id="clip9_24_204">
<path id="Vector_22" d="M54 121.016H18V157.016H54V121.016Z" fill="white"/>
</g>
</mask>
<g mask="url(#mask9_5_135)">
<g id="Group_9">
<g id="Clip path group_7">
<mask id="mask10_5_135" style="mask-type:luminance" maskUnits="userSpaceOnUse" x="18" y="121" width="36" height="37">
<g id="clip10_24_204">
<path id="Vector_23" d="M54 121.016H18V157.016H54V121.016Z" fill="white"/>
</g>
</mask>
<g mask="url(#mask10_5_135)">
<g id="star">
<path id="Vector_24" d="M40.3173 144.008L37.0548 152.98C36.9749 153.195 36.831 153.381 36.6425 153.512C36.4539 153.643 36.2298 153.714 36.0001 153.714C35.7705 153.714 35.5463 153.643 35.3578 153.512C35.1693 153.381 35.0254 153.195 34.9454 152.98L31.683 144.008C31.626 143.854 31.5361 143.713 31.4196 143.597C31.303 143.48 31.1626 143.39 31.0079 143.333L22.0361 140.071C21.8208 139.991 21.6351 139.847 21.504 139.658C21.3728 139.47 21.3026 139.246 21.3026 139.016C21.3026 138.786 21.3728 138.562 21.504 138.374C21.6351 138.185 21.8208 138.041 22.0361 137.961L31.0079 134.699C31.1626 134.642 31.303 134.552 31.4196 134.435C31.5361 134.319 31.626 134.178 31.683 134.024L34.9454 125.052C35.0254 124.837 35.1693 124.651 35.3578 124.52C35.5463 124.389 35.7705 124.318 36.0001 124.318C36.2298 124.318 36.4539 124.389 36.6425 124.52C36.831 124.651 36.9749 124.837 37.0548 125.052L40.3173 134.024C40.3743 134.178 40.4642 134.319 40.5807 134.435C40.6972 134.552 40.8377 134.642 40.9923 134.699L49.9642 137.961C50.1795 138.041 50.3652 138.185 50.4963 138.374C50.6274 138.562 50.6977 138.786 50.6977 139.016C50.6977 139.246 50.6274 139.47 50.4963 139.658C50.3652 139.847 50.1795 139.991 49.9642 140.071L40.9923 143.333C40.8377 143.39 40.6972 143.48 40.5807 143.597C40.4642 143.713 40.3743 143.854 40.3173 144.008Z" stroke="white" stroke-width="3.375" stroke-linecap="round" stroke-linejoin="round"/>
</g>
</g>
</g>
</g>
</g>
</g>
<path id="Vector_25" d="M73.395 142.74H69.489V150.016H65.4885V128.974H73.395C78.3405 128.974 81.081 131.589 81.081 135.873C81.081 140.125 78.2145 142.74 73.395 142.74ZM76.9545 135.873C76.9545 133.636 75.915 132.187 72.954 132.187H69.489V139.59H72.954C75.915 139.59 76.9545 138.141 76.9545 135.873ZM90.5465 146.835L90.83 149.638C90.137 150.048 89.066 150.331 87.932 150.331C85.8215 150.331 84.089 149.323 84.089 146.551V127.273H87.9635V145.827C87.9635 146.803 88.4045 147.244 89.255 147.244C89.696 147.244 90.1055 147.118 90.5465 146.835ZM105.784 138.897V146.173C105.784 147.087 106.225 147.402 106.887 147.402C107.233 147.402 107.58 147.276 107.8 147.087L107.958 149.733C107.391 150.111 106.509 150.331 105.69 150.331C104.367 150.331 103.359 149.827 102.76 148.914C102.571 148.567 102.414 148.189 102.288 147.748C101.658 149.418 99.7676 150.331 97.7201 150.331C94.8221 150.331 92.7431 148.693 92.7431 145.827C92.7431 142.677 95.3891 140.787 100.335 140.787C100.807 140.787 101.5 140.818 102.067 140.881V139.117C102.067 137.605 101.248 136.692 99.6101 136.692C97.9721 136.692 97.1531 137.637 97.1216 139.18L93.4676 138.613C93.7826 135.558 96.2711 133.794 99.7991 133.794C103.737 133.794 105.784 135.558 105.784 138.897ZM102.067 144.22V143.118C101.721 143.086 101.248 143.023 100.776 143.023C98.0036 143.023 96.5231 143.842 96.5231 145.575C96.5231 146.835 97.4051 147.685 98.9171 147.685C100.492 147.685 102.067 146.709 102.067 144.22ZM109.819 142.11C109.819 136.912 112.748 133.794 117.253 133.794C120.844 133.794 123.206 135.841 123.521 138.897L120.119 139.621C119.993 138.015 119.048 136.723 117.284 136.723C114.89 136.723 113.693 138.897 113.693 142.11C113.693 145.354 114.89 147.465 117.316 147.465C118.954 147.465 119.993 146.268 120.151 144.535L123.584 145.449C123.049 148.536 120.686 150.394 117.316 150.394C112.748 150.394 109.819 147.276 109.819 142.11ZM133.404 147.433C135.011 147.433 136.145 146.709 136.586 144.976L139.799 146.016C138.948 149.103 136.302 150.394 133.373 150.394C128.805 150.394 125.907 147.433 125.907 142.204C125.907 137.038 128.805 133.794 133.404 133.794C137.72 133.794 139.956 136.818 139.956 140.661C139.956 141.48 139.799 142.33 139.641 142.771H129.624C129.719 145.701 131.105 147.433 133.404 147.433ZM129.687 140.629H136.239C136.271 140.377 136.271 140.062 136.271 139.842C136.271 138.078 135.263 136.597 133.341 136.597C131.262 136.597 129.939 138.109 129.687 140.629ZM142.14 146.047L145.51 145.228C145.731 146.709 147.054 147.717 148.755 147.717C150.424 147.717 151.527 147.055 151.527 145.732C151.527 142.236 142.738 145.008 142.738 138.834C142.738 135.621 145.447 133.794 148.881 133.794C152.503 133.794 154.645 135.4 155.023 138.298L151.653 138.708C151.527 137.353 150.613 136.44 148.912 136.44C147.337 136.44 146.392 137.196 146.392 138.487C146.392 141.952 155.212 139.023 155.212 145.386C155.212 148.63 152.472 150.394 148.723 150.394C145.353 150.394 142.707 148.882 142.14 146.047Z" fill="white"/>
</g>
<defs>
<clipPath id="clip0_5_135">
<rect width="390" height="304" fill="white"/>
</clipPath>
</defs>
</svg>
