<svg width="17" height="17" viewBox="0 0 17 17" fill="none" xmlns="http://www.w3.org/2000/svg">
<path d="M8.125 16.25C3.64501 16.25 0 12.6053 0 8.125C0 3.64471 3.64501 3.23093e-07 8.125 3.23093e-07C12.6053 3.23093e-07 16.25 3.64471 16.25 8.125C16.25 12.6053 12.6053 16.25 8.125 16.25Z" fill="#808080"/>
<path d="M4.39172 11.9131H5.95732C6.03217 11.9131 6.093 11.8526 6.093 11.7775V6.52183C6.093 6.44698 6.03217 6.38615 5.95732 6.38615H4.39172C4.31687 6.38615 4.25574 6.44698 4.25574 6.52183V11.7775C4.25574 11.8526 4.31687 11.9131 4.39172 11.9131ZM12.7183 8.74379V11.7775C12.7183 11.8526 12.6578 11.9131 12.5826 11.9131H11.0164C10.9416 11.9131 10.8807 11.8526 10.8807 11.7775V8.9561C10.8807 8.21356 10.6156 7.70661 9.95003 7.70661C9.44248 7.70661 9.14069 8.04807 9.00768 8.37848C8.95938 8.49657 8.94686 8.66059 8.94686 8.82639V11.7775C8.94686 11.8523 8.88602 11.9131 8.81117 11.9131H7.24528C7.17013 11.9131 7.10929 11.8526 7.10959 11.7775C7.11317 11.026 7.12898 7.38037 7.11288 6.52362C7.11169 6.44757 7.17281 6.38615 7.24856 6.38615H8.81117C8.88632 6.38615 8.94686 6.44698 8.94686 6.52183V7.16954C8.94299 7.17551 8.93821 7.18176 8.93463 7.18742H8.94686V7.16954C9.1911 6.7935 9.62647 6.25642 10.6031 6.25642C11.812 6.25642 12.7183 7.04638 12.7183 8.74379Z" fill="white"/>
<path d="M6.10314 4.69974C6.10314 5.24277 5.66269 5.68323 5.11936 5.68323C4.57632 5.68323 4.13586 5.24277 4.13586 4.69974C4.13586 4.1564 4.57632 3.71595 5.11936 3.71595C5.66269 3.71595 6.10314 4.1564 6.10314 4.69974Z" fill="white"/>
</svg>
