<svg width="332" height="175" viewBox="0 0 332 175" fill="none" xmlns="http://www.w3.org/2000/svg">
<path d="M0.166016 15.7673V126.816H84.1176V93.9005H40.3963V15.7673H0.166016Z" fill="black"/>
<path d="M137.545 19.5909C137.545 6.95657 126.905 0.805664 116.266 0.805664C105.626 0.805664 94.9869 6.95657 94.9869 19.5909C94.9869 32.2252 105.626 38.3761 116.266 38.3761C126.905 38.3761 137.545 32.2252 137.545 19.5909ZM96.4831 41.7009V126.816H136.048V41.7009H96.4831Z" fill="black"/>
<path d="M185.699 41.7009H150.622V126.816H190.187V83.5936C190.187 75.4478 193.346 71.9567 197.502 71.9567C202.655 71.9567 203.819 75.4478 203.819 81.4324V126.816H243.384V67.6345C243.384 48.683 231.747 39.706 216.453 39.706C204.317 39.706 194.177 46.0232 190.52 57.8262L185.699 41.7009Z" fill="black"/>
<path d="M323.025 174.195C320.033 174.195 317.539 172.92 315.544 170.371C313.66 167.933 312.109 165.052 310.889 161.727C309.449 157.737 308.396 153.636 307.731 149.425C307.177 145.213 306.733 141.057 306.401 136.957C306.068 132.745 305.902 128.589 305.902 124.489C305.902 119.834 306.068 115.179 306.401 110.525L305.736 111.522C303.076 115.512 299.918 119.225 296.26 122.66C292.603 125.985 288.336 128.091 283.46 128.977C281.465 129.31 279.636 129.476 277.974 129.476C273.208 129.476 269.163 128.257 265.838 125.819C262.513 123.381 259.854 120.167 257.859 116.177C255.864 112.187 254.534 107.809 253.869 103.044C253.536 100.495 253.37 97.8903 253.37 95.2304C253.37 88.1375 254.7 81.0445 257.36 73.9516C260.02 66.8587 264.01 61.0402 269.329 56.4963C273.208 53.1715 277.253 50.5117 281.465 48.5168C285.676 46.411 289.999 45.3582 294.432 45.3582C300.416 45.3582 305.126 46.7435 308.562 49.5142C312.109 52.2849 314.436 55.388 315.544 58.8237C315.877 57.6046 316.265 56.2193 316.708 54.6677C317.262 53.1161 318.038 51.8416 319.035 50.8441C320.033 49.7359 321.363 49.348 323.025 49.6805C324.466 50.0129 325.408 50.5671 325.851 51.3429C326.405 52.0078 326.682 52.839 326.682 53.8365C326.682 55.2772 326.35 56.7734 325.685 58.325C325.02 59.7657 324.466 60.9848 324.022 61.9823C322.582 65.3071 321.252 69.5739 320.033 74.7828C318.924 79.8809 317.927 85.4776 317.04 91.5731C316.265 97.6686 315.655 103.764 315.212 109.86C314.768 115.955 314.547 121.496 314.547 126.484C314.547 128.257 314.547 129.919 314.547 131.471C314.658 133.133 314.768 134.629 314.879 135.959C315.101 138.287 315.489 141.335 316.043 145.103C316.708 148.982 317.539 152.583 318.537 155.908C319.312 158.457 320.144 160.618 321.03 162.392C322.028 164.276 323.136 165.218 324.355 165.218C324.687 165.218 324.965 165.107 325.186 164.885C325.519 164.774 325.851 164.664 326.184 164.553C327.07 163.999 327.791 163.722 328.345 163.722C329.342 163.722 330.173 164.165 330.838 165.052C331.503 166.049 331.836 167.157 331.836 168.376C331.836 169.152 331.67 169.873 331.337 170.537C331.005 171.313 330.395 171.923 329.508 172.366C327.403 173.585 325.242 174.195 323.025 174.195ZM277.974 120.665C282.407 120.665 286.397 119.28 289.943 116.509C293.6 113.739 296.537 110.58 298.754 107.034C302.079 101.825 304.683 96.5049 306.567 91.0744C308.451 85.6439 310.114 79.9917 311.554 74.1178C310.557 74.7828 309.449 75.1153 308.23 75.1153C306.9 75.1153 305.847 74.7274 305.071 73.9516C304.406 73.1758 304.074 72.2892 304.074 71.2917C304.074 69.7402 304.794 68.2994 306.235 66.9695L307.066 66.3045C307.62 65.7504 307.897 65.1963 307.897 64.6421C307.897 61.3173 306.844 58.8791 304.739 57.3275C302.633 55.6651 299.973 54.5568 296.759 54.0027C296.316 53.8919 295.595 53.8365 294.598 53.8365C291.384 53.8365 288.004 54.7785 284.457 56.6626C280.911 58.5466 277.863 60.5415 275.314 62.6472C272.876 64.6421 270.715 67.579 268.831 71.458C267.057 75.3369 265.617 79.6038 264.508 84.2585C263.511 88.8024 263.012 93.3464 263.012 97.8903C263.012 101.991 263.511 105.759 264.508 109.195C265.506 112.63 267.113 115.401 269.329 117.507C271.546 119.612 274.427 120.665 277.974 120.665Z" fill="black"/>
</svg>
