<svg width="152" height="151" viewBox="0 0 152 151" fill="none" xmlns="http://www.w3.org/2000/svg">
<path id="strokes" d="M54.0968 142.845C54.0968 142.845 61.877 144.532 72.631 145.607C86.074 146.952 111.614 143.591 131.106 119.395L132.608 117.414C172.294 65.087 124.553 -8.15609 60.66 7.03181C33.5641 13.2862 5.0001 37.244 5 72.258C4.9999 85.363 6.9725 105.83 19.7428 111.879C32.5132 117.929 25.2714 72.258 51.9928 79.629L57.9208 63.873C59.635 59.318 63.486 55.902 68.214 54.744L79.518 51.977C83.995 50.881 88.672 52.76 91.147 56.649L96.964 65.791C98.814 68.698 101.937 70.552 105.376 70.785C113.945 71.364 114.526 83.742 106.049 85.122L88.85 87.922L84.427 102.665C83.759 104.893 81.806 106.493 79.49 106.71C69.206 107.674 69.101 122.65 79.371 123.757L88.85 124.779" stroke="url(#paint0_linear_15_3884)" stroke-width="9.05579" stroke-linecap="round" stroke-linejoin="round"/>
<defs>
<linearGradient id="paint0_linear_15_3884" x1="-36.2528" y1="123.152" x2="146.63" y2="-5.77441" gradientUnits="userSpaceOnUse">
<stop/>
<stop offset="0.477976" stop-color="#041F37"/>
<stop offset="1" stop-color="#F0E8DB"/>
</linearGradient>
</defs>
</svg>
