<svg width="17" height="17" viewBox="0 0 17 17" fill="none" xmlns="http://www.w3.org/2000/svg">
<path d="M8.12485 16.25C3.64494 16.25 0 12.6053 0 8.125C0 3.64471 3.64494 1.47551e-07 8.12485 1.47551e-07C12.6054 1.47551e-07 16.25 3.64471 16.25 8.125C16.25 12.6053 12.6054 16.25 8.12485 16.25Z" fill="#808080"/>
<path d="M8.40993 5.46261V3.77087C8.40993 3.66799 8.32644 3.58449 8.22326 3.58449H7.22368C7.12945 3.58449 7.04864 3.65396 7.0379 3.7476C6.99765 3.99959 6.46774 5.26519 5.7941 5.55714C5.65513 5.62095 5.52452 5.64749 5.39092 5.65286C5.29132 5.65674 5.21289 5.73874 5.21289 5.83864V7.1272C5.21289 7.23038 5.29639 7.31388 5.39927 7.31388H6.00702C6.1096 7.31388 6.1928 7.39738 6.1934 7.49967C6.20801 9.72013 6.2086 11.0686 6.20979 11.0773C6.33533 12.0912 6.86911 12.6992 7.81352 12.9286C8.19552 13.0344 8.60795 13.0815 9.02155 13.0815C9.51061 13.0663 9.98773 12.9882 10.4643 12.8474C10.543 12.8239 10.5964 12.7502 10.5964 12.6679V11.0973C10.5964 10.9729 10.4762 10.8837 10.3569 10.9189C10.1458 10.981 9.94956 11.037 9.77094 11.0922C9.29709 11.2306 8.89959 11.139 8.57664 10.833C8.54622 10.7862 8.50118 10.7248 8.48508 10.6637C8.44035 10.4191 8.41143 10.1594 8.41143 9.91516V7.49996C8.41143 7.39708 8.49522 7.31358 8.5981 7.31358H10.3489C10.4517 7.31358 10.5352 7.23008 10.5352 7.1272V5.83567C10.5352 5.73249 10.4517 5.64899 10.3489 5.64899H8.59631C8.49343 5.64899 8.40993 5.56579 8.40993 5.46261Z" fill="white"/>
</svg>
