<svg width="17" height="17" viewBox="0 0 17 17" fill="none" xmlns="http://www.w3.org/2000/svg">
<path d="M8.12484 16.25C3.64505 16.25 0 12.6053 0 8.12517C0 3.64478 3.64505 3.45101e-05 8.12484 3.45101e-05C12.6052 3.45101e-05 16.25 3.64478 16.25 8.12517C16.25 12.6053 12.6052 16.25 8.12484 16.25Z" fill="#808080"/>
<path d="M9.57525 8.28892L7.41692 9.47288C7.32344 9.52349 7.2392 9.45561 7.2392 9.34903V6.91891C7.2392 6.81114 7.32613 6.74325 7.4199 6.79654L9.59311 8.04273C9.68897 8.0972 9.67289 8.23623 9.57525 8.28892ZM12.9899 6.893C12.9899 5.74061 12.0557 4.80643 10.9033 4.80643H5.4917C4.3393 4.80643 3.40512 5.74061 3.40512 6.893V9.42942C3.40512 10.5818 4.3393 11.516 5.4917 11.516H10.9033C12.0557 11.516 12.9899 10.5818 12.9899 9.42942V6.893Z" fill="white"/>
</svg>
